Coordinates
version=1
nRows=8
nColumns=63
inDegrees=yes

Units are S.I. units (second, meters, Newtons, ...)
If the header above contains a line with 'inDegrees', this indicates whether rotational values are in degrees (yes) or radians (no).

endheader
time	pelvis_tilt	pelvis_list	pelvis_rotation	pelvis_tx	pelvis_ty	pelvis_tz	hip_flexion_r	hip_adduction_r	hip_rotation_r	knee_angle_r	knee_angle_r_beta	ankle_angle_r	subtalar_angle_r	mtp_angle_r	hip_flexion_l	hip_adduction_l	hip_rotation_l	knee_angle_l	knee_angle_l_beta	ankle_angle_l	subtalar_angle_l	mtp_angle_l	L5_S1_Flex_Ext	L5_S1_Lat_Bending	L5_S1_axial_rotation	L4_L5_Flex_Ext	L4_L5_Lat_Bending	L4_L5_axial_rotation	L3_L4_Flex_Ext	L3_L4_Lat_Bending	L3_L4_axial_rotation	L2_L3_Flex_Ext	L2_L3_Lat_Bending	L2_L3_axial_rotation	L1_L2_Flex_Ext	L1_L2_Lat_Bending	L1_L2_axial_rotation	L1_T12_Flex_Ext	L1_T12_Lat_Bending	L1_T12_axial_rotation	Abs_r3	Abs_r2	Abs_r1	Abs_t1	Abs_t2	neck_flexion	neck_bending	neck_rotation	arm_flex_r	arm_add_r	arm_rot_r	elbow_flex_r	pro_sup_r	wrist_flex_r	wrist_dev_r	arm_flex_l	arm_add_l	arm_rot_l	elbow_flex_l	pro_sup_l	wrist_flex_l	wrist_dev_l
2.729167	-0.566771	-1.543466	105.269916	0.038807	0.552135	0.840687	7.680537	0.506314	-21.308022	18.616490	0.324919	33.337217	7.767543	0.000000	5.305281	-0.568294	-4.031025	12.111967	0.211394	33.652786	8.511173	0.000000	0.151600	0.265318	-1.102669	0.281537	0.352872	-1.171585	0.249064	0.645093	-1.171585	0.173264	0.645093	-0.964835	0.140776	0.541036	-0.895918	0.086624	0.410977	-0.827002	1.082864	3.001326	-6.132712	0.000000	0.000000	11.351446	-0.020051	1.928607	-0.223109	-37.389686	44.065563	72.118346	91.786014	-0.715909	11.119995	-1.006591	-31.432682	41.647855	62.792866	89.013440	2.444164	13.283181
2.750000	-0.393779	-1.688746	104.775355	0.038856	0.551088	0.840208	7.906122	0.631681	-21.088267	18.739667	0.327069	33.237377	7.929762	0.000000	5.524297	-0.725833	-4.283260	12.361631	0.215751	34.005708	8.306021	0.000000	0.155845	0.299476	-1.047517	0.289420	0.398302	-1.112987	0.256038	0.728145	-1.112987	0.178115	0.728145	-0.916578	0.144718	0.610691	-0.851108	0.089050	0.463888	-0.785638	1.113185	3.387727	-5.825976	0.000000	0.000000	11.322032	-0.100244	2.227344	0.968905	-34.600864	47.099921	65.221550	91.825322	-2.819419	10.140294	-0.997044	-28.263007	45.321810	55.620534	88.536223	0.371788	11.954258
2.770833	-0.255492	-1.826505	104.223569	0.038907	0.549740	0.839700	8.170751	0.729124	-20.743349	18.951059	0.330758	33.267230	8.032174	0.000000	5.779466	-0.859816	-4.518065	12.744875	0.222440	34.453246	8.021760	0.000000	0.156353	0.329129	-0.965370	0.290363	0.437741	-1.025706	0.256872	0.800243	-1.025706	0.178696	0.800243	-0.844699	0.145189	0.671159	-0.784363	0.089340	0.509820	-0.724028	1.116813	3.723170	-5.369099	0.000000	0.000000	11.462942	-0.275556	2.455259	2.160351	-31.962271	50.596937	58.396398	91.241179	-5.261344	9.011920	-0.553814	-25.323357	48.710119	48.890266	88.121669	-1.532206	10.388505
2.791667	-0.152524	-1.975903	103.611611	0.038989	0.547995	0.839281	8.517046	0.796064	-20.260892	19.279459	0.336490	33.445009	8.063896	0.000000	6.112839	-0.971167	-4.759416	13.294466	0.232032	35.000691	7.672751	0.000000	0.151960	0.354430	-0.857933	0.282205	0.471392	-0.911554	0.249655	0.861761	-0.911554	0.173675	0.861761	-0.750691	0.141110	0.722753	-0.697070	0.086830	0.549012	-0.643450	1.085434	4.009381	-4.771565	0.000000	0.000000	11.823538	-0.531502	2.686653	3.251464	-29.487193	54.244063	51.776708	90.353098	-7.604087	7.661339	0.277595	-22.660896	51.608824	42.807288	87.771569	-3.266850	8.634834
2.812500	-0.071579	-2.149571	102.959597	0.039070	0.545822	0.839037	8.965298	0.840977	-19.662550	19.729245	0.344340	33.765238	8.027204	0.000000	6.552444	-1.069447	-5.000937	14.023381	0.244754	35.638818	7.270828	0.000000	0.141837	0.377925	-0.733296	0.263405	0.502641	-0.779127	0.233024	0.918888	-0.779127	0.162105	0.918888	-0.641634	0.131710	0.770666	-0.595803	0.081046	0.585407	-0.549972	1.013127	4.275168	-4.078374	0.000000	0.000000	12.419209	-0.852583	3.021676	4.193178	-27.184741	57.759281	45.486421	89.456972	-9.468848	5.959650	1.279871	-20.279851	53.800549	37.530722	87.486203	-4.962882	6.719463
2.833333	0.033969	-2.353712	102.314943	0.039012	0.543207	0.839084	9.523055	0.890780	-19.025656	20.289737	0.354123	34.208088	7.942909	0.000000	7.132499	-1.183407	-5.174601	14.947920	0.260890	36.366582	6.797479	0.000000	0.125691	0.407452	-0.611708	0.233420	0.541912	-0.649939	0.206497	0.990680	-0.649939	0.143652	0.990680	-0.535244	0.116716	0.830877	-0.497012	0.071820	0.631144	-0.458781	0.897796	4.609183	-3.402134	0.000000	0.000000	13.223222	-1.227118	3.621217	4.815354	-25.383980	56.628704	40.444165	92.170176	-10.982027	4.331695	2.151543	-18.114763	55.001917	33.136054	87.275583	-6.734192	4.633595
2.854167	0.122169	-2.606189	101.666579	0.038996	0.540221	0.839417	10.203469	0.922633	-18.296987	20.952525	0.365691	34.755301	7.765969	0.000000	7.848052	-1.284020	-5.337064	16.025540	0.279698	37.144657	6.292370	0.000000	0.104690	0.435514	-0.487713	0.194421	0.579233	-0.518195	0.171996	1.058908	-0.518195	0.119651	1.058908	-0.426749	0.097216	0.888100	-0.396267	0.059820	0.674611	-0.365785	0.747793	4.926620	-2.712513	0.000000	0.000000	14.195128	-1.596346	4.424316	5.334341	-23.583530	57.540447	35.495037	92.757055	-11.760954	2.240741	2.813598	-16.166872	55.286099	29.594848	87.119244	-8.567842	2.483489
2.875000	0.193646	-2.917307	101.041819	0.039058	0.536892	0.840119	11.013237	0.931386	-17.505764	21.704348	0.378812	35.394570	7.505788	0.000000	8.710511	-1.368567	-5.484249	17.235801	0.300821	37.955804	5.783647	0.000000	0.080343	0.460450	-0.368525	0.149204	0.612399	-0.391558	0.131995	1.119538	-0.391558	0.091824	1.119538	-0.322459	0.074606	0.938950	-0.299427	0.045908	0.713237	-0.276394	0.573880	5.208703	-2.049626	0.000000	0.000000	15.281142	-1.901544	5.387366	5.775757	-21.831558	60.323024	30.777126	91.240240	-12.065859	-0.048209	3.236570	-14.390577	54.606688	26.834619	87.020518	-10.294952	0.392869
